<?xml version="1.0" standalone="no"?>
<!DOCTYPE svg PUBLIC "-//W3C//DTD SVG 20010904//EN"
 "http://www.w3.org/TR/2001/REC-SVG-20010904/DTD/svg10.dtd">
<svg version="1.0" xmlns="http://www.w3.org/2000/svg"
 width="400.000000pt" height="277.000000pt" viewBox="0 0 400.000000 277.000000"
 preserveAspectRatio="xMidYMid meet">

<g transform="translate(0.000000,277.000000) scale(0.100000,-0.100000)"
fill="#000000" stroke="none">
<path d="M1635 2007 l-340 -123 2 -64 c2 -36 12 -139 22 -230 11 -91 32 -271
47 -400 15 -129 27 -236 28 -237 1 -2 367 -205 507 -281 42 -23 82 -42 88 -42
10 0 586 313 600 326 4 4 121 927 118 931 -1 1 -104 36 -227 78 -124 42 -283
96 -353 121 -71 24 -134 44 -140 43 -7 0 -165 -55 -352 -122z m553 -357 c104
-223 217 -462 250 -532 33 -70 57 -129 54 -131 -4 -2 -44 -2 -88 1 l-82 4 -47
112 c-26 61 -52 117 -59 124 -10 10 -57 11 -226 5 l-214 -8 -46 -115 -46 -115
-92 -3 c-51 -1 -92 -1 -92 2 0 4 128 290 345 771 64 143 121 271 126 284 6 15
13 21 19 15 5 -5 94 -191 198 -414z"/>
<path d="M1917 1551 c-37 -88 -67 -162 -67 -165 0 -3 68 -6 150 -6 83 0 150 2
150 5 0 12 -154 325 -160 325 -4 0 -37 -72 -73 -159z"/>
</g>
</svg>
